<?xml version="1.0" encoding="utf-8"?>
<!-- Generator: Adobe Illustrator 16.0.0, SVG Export Plug-In . SVG Version: 6.00 Build 0)  -->
<!DOCTYPE svg PUBLIC "-//W3C//DTD SVG 1.1//EN" "http://www.w3.org/Graphics/SVG/1.1/DTD/svg11.dtd">
<svg version="1.1" id="Layer_1" xmlns="http://www.w3.org/2000/svg" xmlns:xlink="http://www.w3.org/1999/xlink" x="0px" y="0px"
	 width="171.719px" height="35.95px" viewBox="0 0 171.719 35.95" enable-background="new 0 0 171.719 35.95" xml:space="preserve">
<path fill="#C9DA2A" d="M11.57,17.342c1.145,0,2.054-0.363,2.47-0.988c0.312-0.416,0.494-0.987,0.676-2.054l0.728,0.052l-0.78,4.967
	H0v-0.624L7.696,9.75l-7.28-8.373V0.493h13.65l0.494,4.992l-0.806,0.078c-0.468-1.794-0.729-2.47-1.248-3.094
	c-0.702-0.806-1.872-1.171-3.796-1.171H3.302L9.75,8.736l-7.333,8.605H11.57z"/>
<path fill="#FFFFFF" d="M17.594,9.751c0.026-1.163,0.026-1.577,0.311-2.017c0.543-0.828,2.561-1.656,4.785-1.656
	c4.785,0,6.026,3.621,6.026,6.389c0,3.259-1.811,7.604-6.026,7.604c-1.5,0-2.302-0.568-2.793-0.904v6.232
	c0,0.285-0.078,0.466-0.439,0.466h-1.293c-0.388,0-0.569-0.077-0.569-0.491V9.751z M19.896,17.666
	c0.776,0.465,1.655,0.854,2.586,0.854c2.095,0,3.854-1.992,3.854-5.613c0-3.104-1.5-5.405-4.19-5.405c-2.25,0-2.25,1.37-2.25,2.327
	V17.666z"/>
<path fill="#FFFFFF" d="M39.166,10.889c0-0.543,0-1.241-0.336-1.861c-0.414-0.803-1.293-1.319-2.302-1.319
	c-1.19,0-2.25,0.646-3.13,1.448v10.01c0,0.465-0.078,0.62-0.491,0.62h-1.371c-0.388,0-0.466-0.155-0.466-0.543V0.466
	c0-0.31,0.104-0.439,0.466-0.466h1.371c0.388,0,0.491,0.078,0.491,0.466v7.242c0.466-0.44,1.655-1.63,3.983-1.63
	c4.035,0,4.086,3.439,4.112,4.5v8.588c0,0.465-0.026,0.62-0.492,0.62h-1.293c-0.44-0.026-0.543-0.026-0.543-0.517V10.889z"/>
<path fill="#FFFFFF" d="M45.814,12.674c0.207,3.621,2.043,5.302,4.009,5.302c1.552,0,2.716-0.88,3.569-2.276
	c0.362-0.62,0.44-0.75,0.75-0.75c0.155,0,0.517,0.078,0.517,0.621c0,0.672-1.138,4.526-5.173,4.526
	c-1.552,0-3.646-0.621-4.811-3.001c-0.672-1.293-0.828-2.767-0.828-3.982c0-1.862,0.362-3.207,0.879-4.164
	c0.285-0.543,1.604-2.871,4.785-2.871c4.086,0,4.966,3.543,4.966,4.604c0,0.725-0.439,0.776-0.75,0.828L45.814,12.674z
	 M51.996,10.449c-0.155-1.655-1.293-2.896-2.767-2.896c-2.095,0-3.156,1.604-3.414,3.854L51.996,10.449z"/>
<path fill="#FFFFFF" d="M56.911,8.897c0-0.88,0.026-1.319,0.646-1.784c0.854-0.621,2.612-1.035,4.112-1.035
	c2.638,0,3.492,1.061,3.88,1.553c0.569-0.596,1.474-1.553,4.112-1.553c4.216,0,4.19,2.793,4.19,4.164v9.053
	c0,0.361-0.104,0.465-0.466,0.491h-1.371c-0.336,0-0.466-0.052-0.466-0.491v-8.432c-0.025-1.371-0.051-3.336-2.508-3.336
	c-0.905,0-1.475,0.336-1.785,0.594c-0.724,0.646-0.724,1.319-0.724,2.121v9.053c0,0.361-0.052,0.491-0.44,0.491h-1.345
	c-0.362,0-0.518-0.026-0.518-0.466v-8.689c0-0.932-0.026-3.182-2.483-3.182c-2.483,0-2.535,1.914-2.535,2.793v9.053
	c0,0.414-0.103,0.491-0.517,0.491h-1.319c-0.336,0-0.466-0.077-0.466-0.491V8.897z"/>
<path fill="#FFFFFF" d="M78.148,12.674c0.207,3.621,2.043,5.302,4.009,5.302c1.552,0,2.715-0.88,3.569-2.276
	c0.362-0.62,0.44-0.75,0.75-0.75c0.155,0,0.517,0.078,0.517,0.621c0,0.672-1.138,4.526-5.173,4.526
	c-1.552,0-3.646-0.621-4.811-3.001c-0.672-1.293-0.828-2.767-0.828-3.982c0-1.862,0.362-3.207,0.879-4.164
	c0.285-0.543,1.604-2.871,4.785-2.871c4.086,0,4.966,3.543,4.966,4.604c0,0.725-0.439,0.776-0.75,0.828L78.148,12.674z
	 M84.329,10.449c-0.155-1.655-1.293-2.896-2.768-2.896c-2.095,0-3.155,1.604-3.414,3.854L84.329,10.449z"/>
<path fill="#FFFFFF" d="M91.598,19.347c-0.026,0.413-0.155,0.439-0.465,0.439h-1.319c-0.362,0-0.517-0.026-0.517-0.439V8.535
	c0-0.904,0.104-1.215,0.672-1.552c0.776-0.466,2.431-0.905,4.112-0.905c1.268,0,2.664,0.285,2.664,1.5
	c0,0.596-0.414,1.112-1.061,1.112c-0.465,0-0.646-0.206-1.086-0.698c-0.336-0.336-0.672-0.646-1.423-0.646
	c-1.526,0-1.552,1.139-1.578,1.811V19.347z"/>
<path fill="#FFFFFF" d="M99.151,12.674c0.207,3.621,2.043,5.302,4.009,5.302c1.552,0,2.716-0.88,3.569-2.276
	c0.361-0.62,0.439-0.75,0.75-0.75c0.154,0,0.518,0.078,0.518,0.621c0,0.672-1.139,4.526-5.174,4.526
	c-1.551,0-3.646-0.621-4.81-3.001c-0.672-1.293-0.828-2.767-0.828-3.982c0-1.862,0.362-3.207,0.879-4.164
	c0.285-0.543,1.604-2.871,4.785-2.871c4.087,0,4.966,3.543,4.966,4.604c0,0.725-0.439,0.776-0.75,0.828L99.151,12.674z
	 M105.333,10.449c-0.156-1.655-1.293-2.896-2.768-2.896c-2.095,0-3.156,1.604-3.414,3.854L105.333,10.449z"/>
<path fill="#FFFFFF" d="M3.601,35.867H0.106v-6.068h3.495v1.054H1.393v1.333h2.055v1.054H1.393v1.565h2.208V35.867z"/>
<path fill="#FFFFFF" d="M8.329,29.799h1.299l-2.063,6.068H6.163l-2.059-6.068h1.299l1.142,3.611
	c0.063,0.213,0.129,0.461,0.197,0.745c0.068,0.283,0.11,0.48,0.127,0.591c0.03-0.254,0.134-0.7,0.311-1.336L8.329,29.799z"/>
<path fill="#FFFFFF" d="M13.887,35.867h-3.495v-6.068h3.495v1.054h-2.208v1.333h2.055v1.054h-2.055v1.565h2.208V35.867z"/>
<path fill="#FFFFFF" d="M20.537,35.867h-1.635l-2.64-4.591h-0.037c0.052,0.811,0.079,1.389,0.079,1.735v2.855h-1.15v-6.068h1.623
	l2.636,4.545h0.029c-0.042-0.789-0.062-1.347-0.062-1.673v-2.872h1.158V35.867z"/>
<path fill="#FFFFFF" d="M24.406,35.867h-1.287v-4.998h-1.648v-1.07h4.583v1.07h-1.648V35.867z"/>
<path fill="#FFFFFF" d="M30.57,34.182c0,0.548-0.197,0.979-0.592,1.295c-0.394,0.315-0.943,0.474-1.646,0.474
	c-0.648,0-1.221-0.122-1.719-0.365V34.39c0.41,0.183,0.756,0.312,1.04,0.386c0.284,0.075,0.543,0.112,0.778,0.112
	c0.282,0,0.499-0.054,0.649-0.162c0.151-0.107,0.226-0.269,0.226-0.481c0-0.119-0.033-0.225-0.1-0.317s-0.164-0.182-0.292-0.268
	s-0.391-0.223-0.787-0.411c-0.371-0.175-0.649-0.342-0.834-0.502c-0.185-0.161-0.333-0.348-0.444-0.561
	c-0.111-0.213-0.166-0.462-0.166-0.747c0-0.537,0.182-0.959,0.546-1.267c0.364-0.307,0.867-0.461,1.509-0.461
	c0.315,0,0.616,0.038,0.903,0.112c0.286,0.075,0.586,0.18,0.898,0.315l-0.415,1.001c-0.324-0.133-0.591-0.226-0.803-0.278
	c-0.211-0.053-0.42-0.079-0.625-0.079c-0.244,0-0.431,0.057-0.561,0.17c-0.13,0.114-0.195,0.262-0.195,0.444
	c0,0.113,0.026,0.213,0.079,0.297c0.053,0.085,0.136,0.166,0.251,0.245s0.387,0.221,0.816,0.426
	c0.567,0.271,0.956,0.543,1.167,0.815C30.464,33.452,30.57,33.786,30.57,34.182z"/>
<path fill="#C9DA2A" d="M39.49,35.867h-1.565l-0.478-0.469c-0.528,0.368-1.126,0.552-1.793,0.552c-0.675,0-1.211-0.155-1.606-0.465
	c-0.396-0.31-0.594-0.729-0.594-1.258c0-0.379,0.083-0.702,0.251-0.969c0.167-0.268,0.455-0.518,0.861-0.75
	c-0.208-0.237-0.358-0.465-0.452-0.683c-0.094-0.217-0.141-0.454-0.141-0.712c0-0.421,0.161-0.76,0.483-1.017
	c0.322-0.258,0.753-0.387,1.293-0.387c0.515,0,0.926,0.12,1.235,0.359s0.463,0.56,0.463,0.961c0,0.329-0.095,0.631-0.286,0.903
	s-0.5,0.531-0.926,0.778l1.179,1.149c0.197-0.324,0.367-0.74,0.511-1.249h1.32c-0.1,0.373-0.236,0.737-0.411,1.094
	c-0.174,0.355-0.373,0.67-0.594,0.944L39.49,35.867z M34.787,34.107c0,0.238,0.089,0.428,0.268,0.568
	c0.179,0.142,0.408,0.212,0.687,0.212c0.349,0,0.663-0.085,0.942-0.253l-1.378-1.37c-0.161,0.122-0.287,0.249-0.38,0.382
	S34.787,33.933,34.787,34.107z M36.277,31.164c0-0.146-0.05-0.262-0.149-0.347c-0.1-0.084-0.229-0.126-0.386-0.126
	c-0.186,0-0.332,0.044-0.438,0.133c-0.106,0.088-0.16,0.214-0.16,0.377c0,0.244,0.131,0.513,0.395,0.806
	c0.238-0.133,0.42-0.264,0.548-0.393C36.213,31.486,36.277,31.336,36.277,31.164z"/>
<path fill="#FFFFFF" d="M44.804,35.867h-1.287v-4.998h-1.648v-1.07h4.583v1.07h-1.648V35.867z"/>
<path fill="#FFFFFF" d="M52.894,32.824c0,1.005-0.249,1.777-0.747,2.316c-0.498,0.54-1.212,0.81-2.142,0.81
	c-0.93,0-1.644-0.27-2.142-0.81c-0.498-0.539-0.747-1.314-0.747-2.324s0.25-1.781,0.749-2.314c0.5-0.532,1.215-0.799,2.148-0.799
	s1.646,0.269,2.14,0.806C52.646,31.045,52.894,31.817,52.894,32.824z M48.465,32.824c0,0.679,0.128,1.188,0.386,1.532
	c0.257,0.343,0.642,0.515,1.154,0.515c1.027,0,1.54-0.683,1.54-2.047c0-1.367-0.51-2.05-1.532-2.05
	c-0.512,0-0.898,0.172-1.158,0.517C48.595,31.636,48.465,32.146,48.465,32.824z"/>
<path fill="#FFFFFF" d="M59.091,29.799v3.927c0,0.448-0.101,0.841-0.301,1.179s-0.49,0.597-0.87,0.776
	c-0.379,0.18-0.827,0.27-1.345,0.27c-0.78,0-1.387-0.2-1.818-0.6c-0.432-0.4-0.647-0.947-0.647-1.642v-3.91h1.283v3.715
	c0,0.468,0.094,0.811,0.282,1.029s0.5,0.328,0.934,0.328c0.42,0,0.726-0.11,0.915-0.33c0.19-0.22,0.285-0.565,0.285-1.036v-3.706
	H59.091z"/>
<path fill="#FFFFFF" d="M61.864,33.538v2.329h-1.287v-6.068h1.769c0.825,0,1.435,0.149,1.831,0.45
	c0.396,0.3,0.593,0.756,0.593,1.367c0,0.357-0.098,0.675-0.294,0.953c-0.197,0.278-0.475,0.496-0.834,0.653
	c0.913,1.364,1.508,2.246,1.785,2.645h-1.428l-1.449-2.329H61.864z M61.864,32.492h0.415c0.407,0,0.707-0.067,0.9-0.203
	c0.194-0.136,0.291-0.349,0.291-0.64c0-0.287-0.099-0.492-0.297-0.614c-0.198-0.121-0.504-0.183-0.919-0.183h-0.39V32.492z"/>
<path fill="#FFFFFF" d="M71.573,35.867h-1.635l-2.64-4.591h-0.037c0.052,0.811,0.079,1.389,0.079,1.735v2.855h-1.15v-6.068h1.623
	l2.636,4.545h0.029c-0.042-0.789-0.062-1.347-0.062-1.673v-2.872h1.158V35.867z"/>
<path fill="#FFFFFF" d="M76.816,35.867l-0.44-1.444h-2.212l-0.44,1.444h-1.386l2.142-6.094h1.573l2.15,6.094H76.816z M76.069,33.344
	c-0.407-1.31-0.636-2.05-0.687-2.221c-0.051-0.172-0.088-0.308-0.11-0.407c-0.091,0.354-0.353,1.23-0.784,2.628H76.069z"/>
<path fill="#FFFFFF" d="M81.535,35.867l-1.461-4.761h-0.037c0.052,0.968,0.079,1.614,0.079,1.938v2.822h-1.15v-6.068h1.752
	l1.436,4.641h0.025l1.523-4.641h1.752v6.068h-1.2v-2.872c0-0.136,0.002-0.292,0.006-0.47c0.004-0.177,0.023-0.647,0.056-1.411
	h-0.037l-1.565,4.753H81.535z"/>
<path fill="#FFFFFF" d="M90.477,35.867h-3.495v-6.068h3.495v1.054h-2.208v1.333h2.055v1.054h-2.055v1.565h2.208V35.867z"/>
<path fill="#FFFFFF" d="M97.126,35.867h-1.635l-2.64-4.591h-0.037c0.052,0.811,0.079,1.389,0.079,1.735v2.855h-1.15v-6.068h1.623
	l2.636,4.545h0.029c-0.042-0.789-0.062-1.347-0.062-1.673v-2.872h1.158V35.867z"/>
<path fill="#FFFFFF" d="M100.995,35.867h-1.287v-4.998h-1.648v-1.07h4.583v1.07h-1.648V35.867z"/>
<path fill="#FFFFFF" d="M107.159,34.182c0,0.548-0.197,0.979-0.592,1.295s-0.943,0.474-1.646,0.474
	c-0.647,0-1.221-0.122-1.719-0.365V34.39c0.409,0.183,0.757,0.312,1.04,0.386c0.283,0.075,0.543,0.112,0.778,0.112
	c0.282,0,0.499-0.054,0.649-0.162c0.15-0.107,0.227-0.269,0.227-0.481c0-0.119-0.033-0.225-0.1-0.317s-0.164-0.182-0.293-0.268
	s-0.391-0.223-0.787-0.411c-0.37-0.175-0.648-0.342-0.834-0.502c-0.186-0.161-0.334-0.348-0.443-0.561
	c-0.111-0.213-0.166-0.462-0.166-0.747c0-0.537,0.182-0.959,0.545-1.267c0.364-0.307,0.867-0.461,1.51-0.461
	c0.314,0,0.615,0.038,0.902,0.112c0.286,0.075,0.586,0.18,0.898,0.315l-0.415,1.001c-0.323-0.133-0.591-0.226-0.804-0.278
	c-0.211-0.053-0.42-0.079-0.624-0.079c-0.243,0-0.431,0.057-0.561,0.17c-0.13,0.114-0.195,0.262-0.195,0.444
	c0,0.113,0.026,0.213,0.079,0.297c0.053,0.085,0.137,0.166,0.251,0.245s0.387,0.221,0.815,0.426
	c0.568,0.271,0.957,0.543,1.167,0.815S107.159,33.786,107.159,34.182z"/>
<path fill="#FFFFFF" d="M113.036,35.867l-1.461-4.761h-0.037c0.053,0.968,0.079,1.614,0.079,1.938v2.822h-1.149v-6.068h1.752
	l1.436,4.641h0.025l1.523-4.641h1.752v6.068h-1.2v-2.872c0-0.136,0.002-0.292,0.006-0.47c0.005-0.177,0.022-0.647,0.056-1.411
	h-0.037l-1.564,4.753H113.036z"/>
<path fill="#FFFFFF" d="M122.198,35.867l-0.439-1.444h-2.213l-0.44,1.444h-1.386l2.142-6.094h1.573l2.15,6.094H122.198z
	 M121.451,33.344c-0.407-1.31-0.636-2.05-0.687-2.221c-0.052-0.172-0.088-0.308-0.111-0.407c-0.091,0.354-0.352,1.23-0.783,2.628
	H121.451z"/>
<path fill="#FFFFFF" d="M129.731,35.867h-1.635l-2.641-4.591h-0.037c0.053,0.811,0.079,1.389,0.079,1.735v2.855h-1.149v-6.068h1.623
	l2.635,4.545h0.029c-0.041-0.789-0.062-1.347-0.062-1.673v-2.872h1.158V35.867z"/>
<path fill="#FFFFFF" d="M134.975,35.867l-0.44-1.444h-2.212l-0.44,1.444h-1.387l2.143-6.094h1.573l2.149,6.094H134.975z
	 M134.228,33.344c-0.407-1.31-0.637-2.05-0.688-2.221c-0.051-0.172-0.088-0.308-0.109-0.407c-0.092,0.354-0.354,1.23-0.785,2.628
	H134.228z"/>
<path fill="#FFFFFF" d="M139.429,32.459h2.407v3.146c-0.39,0.128-0.757,0.217-1.103,0.268c-0.344,0.052-0.696,0.077-1.057,0.077
	c-0.916,0-1.615-0.27-2.098-0.808s-0.725-1.311-0.725-2.318c0-0.979,0.28-1.743,0.841-2.291s1.337-0.822,2.331-0.822
	c0.623,0,1.223,0.125,1.801,0.374l-0.428,1.029c-0.441-0.222-0.902-0.332-1.381-0.332c-0.557,0-1.002,0.187-1.338,0.561
	c-0.334,0.373-0.502,0.876-0.502,1.507c0,0.658,0.135,1.161,0.404,1.509c0.271,0.348,0.662,0.521,1.178,0.521
	c0.268,0,0.541-0.027,0.817-0.083V33.53h-1.149V32.459z"/>
<path fill="#FFFFFF" d="M146.775,35.867h-3.495v-6.068h3.495v1.054h-2.208v1.333h2.055v1.054h-2.055v1.565h2.208V35.867z"/>
<path fill="#FFFFFF" d="M150.61,35.867l-1.461-4.761h-0.037c0.053,0.968,0.079,1.614,0.079,1.938v2.822h-1.149v-6.068h1.752
	l1.436,4.641h0.025l1.523-4.641h1.752v6.068h-1.2v-2.872c0-0.136,0.002-0.292,0.006-0.47c0.005-0.177,0.022-0.647,0.056-1.411
	h-0.037l-1.564,4.753H150.61z"/>
<path fill="#FFFFFF" d="M159.552,35.867h-3.494v-6.068h3.494v1.054h-2.207v1.333h2.055v1.054h-2.055v1.565h2.207V35.867z"/>
<path fill="#FFFFFF" d="M166.202,35.867h-1.635l-2.641-4.591h-0.037c0.053,0.811,0.078,1.389,0.078,1.735v2.855h-1.149v-6.068h1.623
	l2.636,4.545h0.029c-0.041-0.789-0.062-1.347-0.062-1.673v-2.872h1.158V35.867z"/>
<path fill="#FFFFFF" d="M170.071,35.867h-1.287v-4.998h-1.648v-1.07h4.583v1.07h-1.647V35.867z"/>
</svg>
